PathFileType	4	(X/Y/Z)	36_1_rein_14_p1_0-203_filt_butterworth.trc
DataRate	CameraRate	NumFrames	NumMarkers	Units	OrigDataRate	OrigDataStartFrame	OrigNumFrames
58.0	58.0	6	27	m	58.0	126	203
Frame#	Time	RHip			RKnee			RAnkle			RBigToe			RSmallToe			RHeel			LHip			LKnee			LAnkle			LBigToe			LSmallToe			LHeel			Neck			Head			Nose			RShoulder			RElbow			RWrist			RThumb			RIndex			RPinky			LShoulder			LElbow			LWrist			LThumb			LIndex			LPinky			
		X1	Y1	Z1	X2	Y2	Z2	X3	Y3	Z3	X4	Y4	Z4	X5	Y5	Z5	X6	Y6	Z6	X7	Y7	Z7	X8	Y8	Z8	X9	Y9	Z9	X10	Y10	Z10	X11	Y11	Z11	X12	Y12	Z12	X13	Y13	Z13	X14	Y14	Z14	X15	Y15	Z15	X16	Y16	Z16	X17	Y17	Z17	X18	Y18	Z18	X19	Y19	Z19	X20	Y20	Z20	X21	Y21	Z21	X22	Y22	Z22	X23	Y23	Z23	X24	Y24	Z24	X25	Y25	Z25	X26	Y26	Z26	X27	Y27	Z27	
126	2.1724137931034484	0.31906830271577	0.8558193965417289	0.6992010870876544	0.35188499675680135	0.3932532677445163	0.7451331091431644	0.3647963944378928	-0.053405006870196496	0.7525637833388293	0.32933638614230365	-0.042230312378586286	0.5179939736257261	0.4029528336957348	-0.050307661534991895	0.5610043329417531	0.34390454652548147	-0.12307510552285536	0.8310971485366848	0.10220888916999334	0.8184329344170741	0.7201028788738768	0.14047817862297315	0.373567098047606	0.7316802001622198	0.17763049773774658	-0.01959934581173968	0.7151886847866641	0.1904146105740493	-0.05634308327544815	0.5459699550321637	0.12650269033563485	-0.0732262131531475	0.5882169649997488	0.19424331131551026	-0.1070556849539025	0.7841478681243002	0.16452393035419297	1.449108945205487	0.707202748982415	0.1539981913664229	1.730520518904448	0.6266624948817092	0.15687502841210446	1.5562913245869676	0.5825115865452356	0.3342876634300488	1.38054055417772	0.7640370050171712	0.40155296845021193	1.1043702444507513	0.705481672814385	0.40695619939706335	0.8365933098107252	0.5913782581135522	0.3468382705446574	0.7296044050763654	0.541552997858149	0.36157770935074407	0.7224461342311093	0.5414772894124605	0.4021233309755528	0.6928870366120726	0.6289127272642161	-0.008262460926745794	1.3679021891740872	0.6952091529661971	-0.036987177489472646	1.059205034826091	0.732779260344952	0.024893659323878128	0.8097723282209197	0.6251344234562543	0.0846309550284278	0.7371229540891324	0.562670853242158	0.06503190798513607	0.6732321506469051	0.5890953861102828	0.016131830617841788	0.680530440067933	0.6274853386628421	
127	2.189655172413793	0.3190788329617103	0.8560443631073016	0.6994476442959106	0.3519182375689791	0.39354367279232816	0.7451422002636744	0.36479094991399674	-0.05334738575851557	0.7525718028338555	0.3293432962935605	-0.04229576044671793	0.5179756672554489	0.4029601160138126	-0.05008593819102036	0.5611034799765938	0.34389377992976844	-0.12306699476130592	0.8311105835997199	0.10235770920126716	0.818749920627803	0.7196851893788584	0.14046471488565285	0.3735599705325239	0.7316835857241686	0.17763272341422193	-0.019492690924754905	0.7152177795560603	0.1903923293523007	-0.056332368068492795	0.5459654657835791	0.1259725822172629	-0.07315713801332809	0.5879391677715439	0.19416006629003138	-0.1068923908198709	0.7842687397202306	0.1645240106251741	1.4491089736384921	0.7072180994384221	0.15393859699994478	1.7311808082406122	0.6265958288577922	0.15602770670031124	1.5561312918310009	0.5848563299352008	0.33428280487624096	1.3805615010145738	0.7640671982145172	0.40288111575442254	1.1052607730357245	0.7026599630509605	0.40760189672705543	0.8365456323247307	0.5938149434240461	0.34686393367132995	0.7295876256782474	0.5415813844349459	0.36226667578442695	0.7236033941611059	0.5389730578013501	0.4021993946082583	0.6928023509781459	0.6290136637993344	-0.00832333048353885	1.3685080932813616	0.6952065872281222	-0.03738630319765798	1.0591978401101068	0.732566998084046	0.02507649788915109	0.8106586687519002	0.6253448709116654	0.08372968667041072	0.7360437563787601	0.5650332298376138	0.06385152686667328	0.6714383665370742	0.5921010149910854	0.016047436678177044	0.6803673407988476	0.6277808936400342	
128	2.206896551724138	0.31921752109977386	0.8564718530740172	0.6993064188670841	0.35195069090155146	0.3938985123101475	0.7451455680976344	0.36478575781861305	-0.05327156285050574	0.7525841283034541	0.3293463744159739	-0.042320345997516974	0.5177984223919535	0.4029538891043316	-0.049874514433317176	0.5611394453254351	0.3438848989486102	-0.12306305642502706	0.8311257825172095	0.10262022711205868	0.8191496177122168	0.7189612079794174	0.14046141622428715	0.3736060215724926	0.7316854475261697	0.1776130128666318	-0.019514078906120683	0.7152121486921567	0.19005138663398713	-0.0554199918425714	0.5445582868254031	0.12569843193436678	-0.0730970119290145	0.5877555683359769	0.1939802291517591	-0.10671465540283988	0.7843589196266344	0.16453450299049888	1.4490970873276212	0.7072563100346266	0.1538763000915685	1.7319358237502098	0.6264941313962846	0.15519899334626436	1.555309979809946	0.5873410696789438	0.3342841431999437	1.3805793130756991	0.764108103519868	0.4041671611947352	1.105812671398084	0.7006583672943136	0.4082671130391633	0.8366670443767408	0.5964602011230344	0.3469312519377607	0.7295911696635241	0.5414788374890602	0.3628100774734191	0.7245011599320211	0.5369994882489978	0.4022635033140254	0.6927225592541814	0.6290976799639152	-0.0084006267612439	1.3687714475270867	0.6949298956889162	-0.03747544269732646	1.0591984821960085	0.7325087044161769	0.0251594956421054	0.811319377124974	0.6254819089308081	0.08278140563549588	0.7348844361661788	0.5675554269215657	0.06303757975814792	0.6695992050759049	0.5941353421117788	0.0159760630618214	0.6790174413648394	0.6270364559095057	
129	2.2241379310344827	0.3194341854541653	0.857009825323278	0.6988408191383291	0.35198382202786743	0.3943350161696445	0.7451433364015738	0.3647817724944246	-0.05317789024401608	0.7526005403031313	0.32933104067889585	-0.04217851231014378	0.5174767834057687	0.40293185953872773	-0.04976395821712601	0.5610475407724878	0.3438798933146757	-0.12306647638649487	0.8311431352944502	0.1030055018910994	0.8196384612882014	0.7179161521756561	0.1404679716241346	0.373702928039657	0.7316880320915411	0.17757831438387758	-0.019608973589480383	0.7151740476462282	0.18951060844190318	-0.053933784281554216	0.5422593269346356	0.12565835878070616	-0.07303450348113782	0.5876807538619182	0.19373916764996807	-0.10655512174288292	0.784394215897801	0.16455415134120793	1.44907776896718	0.7073098405257231	0.15374410157872145	1.7326660912650818	0.6266422721516691	0.15449040668382774	1.553982511217682	0.5896153806011909	0.3342920848889248	1.3805929908453776	0.7641510617086755	0.40527522670370275	1.1058437635869052	0.6996932052279871	0.4088887373188055	0.8368206411377952	0.5989211669843473	0.3469931575735731	0.7295994610664291	0.5413833718149554	0.36312764072571296	0.7250101593337281	0.5358543956172938	0.4022952851967133	0.6926583416034857	0.6291655733668661	-0.008420081071990007	1.3685820639926922	0.6946990168280966	-0.03739251376158571	1.0592085310251433	0.7325401827532554	0.02498718209199531	0.8115555315404012	0.625431430324288	0.08191346348360912	0.733852817941281	0.569879711183582	0.06283445842906382	0.6679964955600792	0.5945730017625878	0.015895505177859037	0.6764324615531588	0.6253655700367325	
130	2.2413793103448274	0.31967458618100625	0.8575596358399923	0.6981531182658797	0.3520188710738524	0.3948410963359743	0.7451346171012662	0.3647788857060651	-0.053064609222653776	0.7526209720302235	0.32929698409292085	-0.04179866123611806	0.5171102920149259	0.4028851445825671	-0.04973447361159432	0.5608586832292894	0.34387823601900225	-0.12307694204124299	0.8311641380432382	0.10351108728252333	0.8202092619490529	0.7165680744493923	0.14048389259555275	0.37384987972187517	0.7316876685410094	0.17753888891816427	-0.01969522351099269	0.7151145118227408	0.18889569008290702	-0.0522266766245212	0.539617184932687	0.12577101554310102	-0.07296555052712886	0.5876834079538487	0.19347483002681917	-0.10641313869829512	0.7843806316761017	0.16457747092106673	1.4490572684549636	0.7073678659318677	0.15350522062586475	1.733234194275612	0.6273315610809928	0.1539862555575936	1.5524636166391637	0.5913413284824335	0.334303929886581	1.3806003357717056	0.7641922382583498	0.4060820750021319	1.1052789797923368	0.6998260644336807	0.40938787988700365	0.8369273067932324	0.6008332362778567	0.34702631056371147	0.7296052235472649	0.5413464580571379	0.3632053385883572	0.7251181214191863	0.5355785509315504	0.4022832146394534	0.6926182736831215	0.6292282830160894	-0.00829107734190832	1.3679468442940288	0.6949904905431966	-0.03729735216451485	1.0592263491839402	0.732586502509204	0.024462904438927263	0.8113012223832359	0.6251326784148833	0.08124525411811964	0.7330842112767019	0.5716645673477512	0.06333580504867996	0.666873431992158	0.593169676023767	0.015788204005775942	0.6732137289469133	0.6230037229063079	
131	2.2586206896551726	0.3199232425305285	0.858108170508164	0.6972806638894836	0.3520549583573161	0.39536142847063704	0.7451166543701728	0.3647766559806925	-0.05292769530553272	0.7526474647464124	0.32925488025115357	-0.04127501438226351	0.5167972748778774	0.40281693170426036	-0.0497355322915495	0.560624903777362	0.3438777617288197	-0.12309133896656736	0.8311905816996644	0.10409903354748236	0.820823357538173	0.7150218057765632	0.14050900215559875	0.37404952990914775	0.731677567743045	0.17750354435615168	-0.019720986540949587	0.7150513546366908	0.18828581706179665	-0.05052216089756496	0.5369784292236438	0.125911410152784	-0.07289118304828786	0.5876945049956109	0.1932283886607201	-0.10629171670972075	0.7843401407401059	0.16459780891209086	1.449042370033962	0.7074206750033079	0.15322475998539312	1.7335600971157483	0.6284621028133046	0.1537339204685247	1.5511877712961128	0.5922492957226003	0.3343156460829229	1.3806000284035056	0.7642297156400578	0.406496986506212	1.1043429442575274	0.7006956827210701	0.4096871827946902	0.836983806142157	0.6019260329681881	0.34703021058437566	0.7296070066345908	0.5413527601221748	0.36313107060319827	0.724979940695706	0.5358194216773311	0.4022500661032775	0.6926059719993107	0.6292865785351663	-0.007972296832788321	1.3670137409022973	0.6961013546473676	-0.03726237600376604	1.0592465093429353	0.7326015674747188	0.023685247112904345	0.8106745559104246	0.6246553406693736	0.08086920827923258	0.732661981173821	0.572644469210298	0.06444093814279946	0.6663600103819801	0.5902053412631797	0.015651745528416174	0.6702105023682701	0.6202743735117643	
